<svg width="33" height="33" viewBox="0 0 33 33" fill="none" xmlns="http://www.w3.org/2000/svg">
<circle cx="16.5" cy="16.5" r="16.5" fill="white"/>
<path d="M21.2359 18.49C24.9848 20.0653 26.7842 24.6866 23.3916 26.9286V26.9286C21.329 28.2916 18.9086 29.0124 16.4363 28.9998C13.9641 28.9872 11.5511 28.2418 9.50252 26.8579V26.8579C6.13292 24.5815 7.97927 19.9787 11.7441 18.4416L13.1104 17.8838C15.2807 16.9978 17.7141 17.0102 19.8753 17.9183L21.2359 18.49Z" fill="#4A90E2"/>
<path d="M21 10.5C21 12.9853 18.9853 15 16.5 15C14.0147 15 12 12.9853 12 10.5C12 8.01472 14.0147 6 16.5 6C18.9853 6 21 8.01472 21 10.5Z" fill="#4A90E2"/>
</svg>
